<svg xmlns="http://www.w3.org/2000/svg" width="256" height="256" viewBox="0 0 256 256">
  <defs>
    <linearGradient id="g" x1="0" y1="0" x2="0" y2="1">
      <stop offset="0" stop-color="#141414"/>
      <stop offset="1" stop-color="#0a0a0a"/>
    </linearGradient>
  </defs>
  <rect width="256" height="256" rx="56" fill="url(#g)"/>
  <rect x="18" y="18" width="220" height="220" rx="48" fill="none" stroke="#262626" stroke-width="4"/>
  <path d="M78 92c0-20 16-36 36-36h26c20 0 36 16 36 36v6h-28v-6c0-5-3-8-8-8h-26c-5 0-8 3-8 8v16c0 4 2 6 6 7l46 10c21 5 34 18 34 40v2c0 20-16 36-36 36h-28c-20 0-36-16-36-36v-6h28v6c0 5 3 8 8 8h28c5 0 8-3 8-8v-6c0-5-3-7-8-8l-44-10c-22-5-34-18-34-38V92z" fill="#eab308"/>
</svg>

